# File created by Blade
# Date/Time:  Thu Jan 22 19:09:08 2015
#---------------------------------------------------------
:version 1.10
:name HOM
:units
  mass 1.0
  length 1.000000
  angle deg
:documentation
     Acclaim Skeleton File
:root
   axis xyz
   order TX TY TZ RX RY RZ
   position 0.000000 0.000000 0.000000
   orientation 0 0 0
:bonedata
   begin
      id 1
      name RightUpLeg_dum
      direction -1.000000 0.000000 0.000000
      length 4.478084
      axis 0.0 0.0 0.0 xyz
   end
   begin
      id 2
      name LeftUpLeg_dum
      direction 1.000000 0.000000 0.000000
      length 4.478084
      axis 0.0 0.0 0.0 xyz
   end
   begin
      id 3
      name Spine_dum
      direction 0.000000 1.000000 0.000000
      length 6.068208
      axis 0.0 0.0 0.0 xyz
   end
   begin
      id 4
      name RightUpLeg
      direction 0.000000 -1.000000 0.000000
      length 16.405774
      axis 0.0 0.0 0.0 xyz
      dof rx ry rz
   end
   begin
      id 5
      name RightLeg
      direction 0.000000 -1.000000 0.000000
      length 14.644143
      axis 0.0 0.0 0.0 xyz
      dof rx ry rz
   end
   begin
      id 6
      name RightFoot
      direction 0.000000 -0.258819 0.965926
      length 5.806150
      axis 15.0 0.0 0.0 xyz
      dof rx ry rz
   end
   begin
      id 7
      name RightToeBase
      direction 0.000000 0.000000 1.000000
      length 2.952750
      axis 0.0 0.0 0.0 xyz
      dof rx ry rz
   end
   begin
      id 8
      name LeftUpLeg
      direction 0.000000 -1.000000 0.000000
      length 16.405774
      axis 0.0 0.0 0.0 xyz
      dof rx ry rz
   end
   begin
      id 9
      name LeftLeg
      direction 0.000000 -1.000000 0.000000
      length 14.644143
      axis 0.0 0.0 0.0 xyz
      dof rx ry rz
   end
   begin
      id 10
      name LeftFoot
      direction 0.000000 -0.258819 0.965926
      length 5.806150
      axis 15.0 0.0 0.0 xyz
      dof rx ry rz
   end
   begin
      id 11
      name LeftToeBase
      direction 0.000000 0.000000 1.000000
      length 2.952750
      axis 0.0 0.0 0.0 xyz
      dof rx ry rz
   end
   begin
      id 12
      name Spine
      direction 0.000000 1.000000 0.000000
      length 0.000000
      axis 0.0 0.0 0.0 xyz
      dof rx ry rz
   end
   begin
      id 13
      name Spine_dum1
      direction 0.000000 1.000000 0.000000
      length 10.013923
      axis 0.0 0.0 0.0 xyz
   end
   begin
      id 14
      name Spine_dum2
      direction 0.000000 1.000000 0.000000
      length 10.013923
      axis 0.0 0.0 0.0 xyz
   end
   begin
      id 15
      name Spine_dum3
      direction 0.000000 1.000000 0.000000
      length 15.777476
      axis 0.0 0.0 0.0 xyz
   end
   begin
      id 16
      name RightShoulder
      direction -1.000000 0.000000 0.000000
      length 7.190220
      axis 0.0 0.0 90.0 xyz
      dof rx ry rz
   end
   begin
      id 17
      name RightArm
      direction -1.000000 0.000000 0.000000
      length 10.177469
      axis 0.0 0.0 90.0 xyz
      dof rx ry rz
   end
   begin
      id 18
      name RightForeArm
      direction -1.000000 0.000000 0.000000
      length 8.392114
      axis 0.0 0.0 90.0 xyz
      dof ry rz rx
   end
   begin
      id 19
      name RightHand
      direction -1.000000 0.000000 0.000000
      length 0.000000
      axis 0.0 0.0 90.0 xyz
      dof rx ry rz
   end
   begin
      id 20
      name RightHand_dum1
      direction -1.000000 0.000000 0.000000
      length 3.937000
      axis 0.0 0.0 90.0 xyz
   end
   begin
      id 21
      name RightHand_dum2
      direction 0.000000 0.000000 0.000000
      length 0.000000
      axis 0.0 0.0 90.0 xyz
   end
   begin
      id 22
      name RightHandThumb1
      direction 0.000000 0.000000 1.000000
      length 3.937000
      axis 0.0 0.0 90.0 xyz
      dof rx rz ry
   end
   begin
      id 23
      name LeftShoulder
      direction 1.000000 0.000000 0.000000
      length 7.190220
      axis 0.0 0.0 -90.0 xyz
      dof rx ry rz
   end
   begin
      id 24
      name LeftArm
      direction 1.000000 0.000000 0.000000
      length 10.177469
      axis 0.0 0.0 -90.0 xyz
      dof rx ry rz
   end
   begin
      id 25
      name LeftForeArm
      direction 1.000000 0.000000 0.000000
      length 8.392114
      axis 0.0 0.0 -90.0 xyz
      dof ry rz rx
   end
   begin
      id 26
      name LeftHand
      direction 1.000000 0.000000 0.000000
      length 0.000000
      axis 0.0 0.0 -90.0 xyz
      dof rx ry rz
   end
   begin
      id 27
      name LeftHand_dum1
      direction 1.000000 0.000000 0.000000
      length 3.937000
      axis 0.0 0.0 -90.0 xyz
   end
   begin
      id 28
      name LeftHand_dum2
      direction 0.000000 0.000000 0.000000
      length 0.000000
      axis 0.0 0.0 -90.0 xyz
   end
   begin
      id 29
      name LeftHandThumb1
      direction 0.000000 0.000000 1.000000
      length 3.937000
      axis 0.0 0.0 -90.0 xyz
      dof rx rz ry
   end
   begin
      id 30
      name Head
      direction 0.000000 1.000000 0.000000
      length 4.527550
      axis 0.0 0.0 0.0 xyz
      dof rx ry rz
   end
:hierarchy
   begin
      root RightUpLeg_dum LeftUpLeg_dum Spine_dum
      RightUpLeg_dum RightUpLeg
      LeftUpLeg_dum LeftUpLeg
      Spine_dum Spine
      RightUpLeg RightLeg
      RightLeg RightFoot
      RightFoot RightToeBase
      LeftUpLeg LeftLeg
      LeftLeg LeftFoot
      LeftFoot LeftToeBase
      Spine Spine_dum1 Spine_dum2 Spine_dum3
      Spine_dum1 RightShoulder
      Spine_dum2 LeftShoulder
      Spine_dum3 Head
      RightShoulder RightArm
      RightArm RightForeArm
      RightForeArm RightHand
      RightHand RightHand_dum1 RightHand_dum2
      RightHand_dum2 RightHandThumb1
      LeftShoulder LeftArm
      LeftArm LeftForeArm
      LeftForeArm LeftHand
      LeftHand LeftHand_dum1 LeftHand_dum2
      LeftHand_dum2 LeftHandThumb1
   end

# File created by Blade
# Date/Time:  Thu Jan 22 19:08:58 2015
# Frame Rate: 120.000 fps
#------------------------------------------------------
:FULLY-SPECIFIED
:DEGREES
1
root -2.609559 33.077697 -0.298539 8.743548 -4.433183 2.147778
RightUpLeg -2.734968 -5.682795 -2.341262
RightLeg -0.098912 -0.000000 0.000000
RightFoot -11.566480 -0.733652 4.724929
RightToeBase 5.062907 -0.000000 -0.000000
LeftUpLeg -1.614021 6.552175 2.208696
LeftLeg 1.156171 -0.000000 -0.000000
LeftFoot -11.252019 1.425948 -11.356814
LeftToeBase 6.824407 -0.000000 -0.000000
Spine -9.034772 -2.147745 -1.006390
RightShoulder -20.287524 -16.929063 -26.872161
RightArm 18.894173 31.386989 38.117344
RightForeArm -10.045990 -0.000000 9.028027
RightHand 9.937919 -0.000000 12.589724
RightHandThumb1 -24.326973 -0.000000 -32.862282
LeftShoulder -25.122577 9.136812 30.203985
LeftArm 13.894812 -28.410724 -31.963982
LeftForeArm 24.482146 -0.000000 -0.457323
LeftHand -2.894201 -0.000000 -11.212882
LeftHandThumb1 -26.253704 0.000000 33.147579
Head -4.115334 5.415522 -1.162187
2
root -2.612654 33.077240 -0.293819 8.751271 -4.429528 2.146567
RightUpLeg -2.729740 -5.671943 -2.335653
RightLeg -0.103807 -0.000000 0.000000
RightFoot -11.579581 -0.748186 4.716534
RightToeBase 5.093054 -0.000000 -0.000000
LeftUpLeg -1.622509 6.609635 2.210270
LeftLeg 1.172390 -0.000000 -0.000000
LeftFoot -11.268846 1.391732 -11.313389
LeftToeBase 6.905862 -0.000000 -0.000000
Spine -9.040834 -2.147669 -1.019739
RightShoulder -20.292128 -16.901406 -26.850439
RightArm 18.877111 31.364625 38.131692
RightForeArm -10.068485 -0.000000 9.026343
RightHand 9.968784 0.000000 12.514959
RightHandThumb1 -24.326973 -0.000000 -32.862282
LeftShoulder -25.124809 9.106179 30.220947
LeftArm 13.951942 -28.333837 -31.949549
LeftForeArm 24.455336 -0.000000 -0.549582
LeftHand -2.883096 -0.000000 -11.123377
LeftHandThumb1 -26.253704 0.000000 33.147579
Head -4.121403 5.404177 -1.138068
3
root -2.616660 33.077173 -0.287345 8.746428 -4.422630 2.132226
RightUpLeg -2.697961 -5.696000 -2.314864
RightLeg -0.131770 -0.000000 0.000000
RightFoot -11.555976 -0.729085 4.697607
RightToeBase 5.049035 -0.000000 -0.000000
LeftUpLeg -1.599437 6.624708 2.234465
LeftLeg 1.158314 -0.000000 -0.000000
LeftFoot -11.255783 1.358724 -11.327443
LeftToeBase 6.888303 -0.000000 -0.000000
Spine -9.037194 -2.154916 -1.016963
RightShoulder -20.285786 -16.896178 -26.826899
RightArm 18.863344 31.362704 38.153952
RightForeArm -10.121939 -0.000000 9.046612
RightHand 9.959553 -0.000000 12.473338
RightHandThumb1 -24.326973 -0.000000 -32.862282
LeftShoulder -25.132139 9.130902 30.250427
LeftArm 13.952903 -28.356893 -31.992100
LeftForeArm 24.492186 0.000000 -0.456595
LeftHand -2.911002 -0.000000 -11.158263
LeftHandThumb1 -26.253704 0.000000 33.147579
Head -4.117847 5.424957 -1.133329
4
root -2.618802 33.076887 -0.282990 8.757491 -4.421990 2.130963
RightUpLeg -2.693551 -5.693085 -2.310836
RightLeg -0.145460 -0.000000 0.000000
RightFoot -11.557695 -0.737806 4.687758
RightToeBase 5.053219 -0.000000 -0.000000
LeftUpLeg -1.599540 6.613613 2.238170
LeftLeg 1.155592 -0.000000 -0.000000
LeftFoot -11.273798 1.371429 -11.333726
LeftToeBase 6.886491 -0.000000 -0.000000
Spine -9.047949 -2.156119 -1.022221
RightShoulder -20.293175 -16.895357 -26.812327
RightArm 18.875593 31.381042 38.198585
RightForeArm -10.183777 -0.000000 9.053177
RightHand 9.963359 -0.000000 12.491761
RightHandThumb1 -24.326973 -0.000000 -32.862282
LeftShoulder -25.115605 9.099850 30.262383
LeftArm 13.968475 -28.278220 -31.947645
LeftForeArm 24.448058 -0.000000 -0.530614
LeftHand -2.893894 -0.000000 -11.053776
LeftHandThumb1 -26.253704 0.000000 33.147579
Head -4.124101 5.405287 -1.124215
5
root -2.620526 33.076491 -0.278537 8.765068 -4.415428 2.131218
RightUpLeg -2.684432 -5.700823 -2.308165
RightLeg -0.160987 -0.000000 0.000000
RightFoot -11.561908 -0.730238 4.709903
RightToeBase 5.079843 -0.000000 -0.000000
LeftUpLeg -1.597149 6.617650 2.239594
LeftLeg 1.146393 -0.000000 -0.000000
LeftFoot -11.268164 1.382972 -11.318401
LeftToeBase 6.875307 -0.000000 -0.000000
Spine -9.055887 -2.151147 -1.028884
RightShoulder -20.304665 -16.900738 -26.794394
RightArm 18.873905 31.362882 38.214060
RightForeArm -10.156322 -0.000000 9.064014
RightHand 9.925632 -0.000000 12.505463
RightHandThumb1 -24.326973 -0.000000 -32.862282
LeftShoulder -25.100703 9.085802 30.287430
LeftArm 13.972510 -28.225278 -31.936531
LeftForeArm 24.431928 0.000000 -0.521252
LeftHand -2.831397 -0.000000 -10.998041
LeftHandThumb1 -26.253704 0.000000 33.147579
Head -4.130056 5.394537 -1.118837
6
root -2.622477 33.075920 -0.272848 8.763057 -4.410881 2.123485
RightUpLeg -2.659886 -5.683729 -2.298990
RightLeg -0.183103 -0.000000 0.000000
RightFoot -11.549138 -0.743723 4.716185
RightToeBase 5.052055 -0.000000 -0.000000
LeftUpLeg -1.577636 6.606952 2.252375
LeftLeg 1.132701 -0.000000 -0.000000
LeftFoot -11.263544 1.373325 -11.361013
LeftToeBase 6.833837 -0.000000 -0.000000
Spine -9.055686 -2.153221 -1.020444
RightShoulder -20.297774 -16.894756 -26.795930
RightArm 18.856471 31.346192 38.230098
RightForeArm -10.140187 -0.000000 9.078437
RightHand 9.931745 -0.000000 12.511786
RightHandThumb1 -24.326973 -0.000000 -32.862282
LeftShoulder -25.087586 9.089334 30.295795
LeftArm 13.960379 -28.161274 -31.898909
LeftForeArm 24.396247 -0.000000 -0.506999
LeftHand -2.818873 0.000000 -10.954145
LeftHandThumb1 -26.253704 0.000000 33.147579
Head -4.137517 5.390450 -1.129574
7
root -2.622532 33.075290 -0.269661 8.769408 -4.398063 2.127663
RightUpLeg -2.654766 -5.645873 -2.301640
RightLeg -0.188672 -0.000000 0.000000
RightFoot -11.562697 -0.823206 4.682173
RightToeBase 5.062743 -0.000000 -0.000000
LeftUpLeg -1.580379 6.600061 2.237480
LeftLeg 1.115805 -0.000000 -0.000000
LeftFoot -11.286737 1.418054 -11.404589
LeftToeBase 6.940461 -0.000000 -0.000000
Spine -9.054646 -2.163478 -1.020486
RightShoulder -20.304495 -16.914712 -26.775754
RightArm 18.858415 31.376683 38.245903
RightForeArm -10.100771 -0.000000 9.103210
RightHand 9.905157 -0.000000 12.653351
RightHandThumb1 -24.326973 -0.000000 -32.862282
LeftShoulder -25.079512 9.097067 30.302683
LeftArm 13.958121 -28.129527 -31.876121
LeftForeArm 24.352852 0.000000 -0.492518
LeftHand -2.809559 0.000000 -10.916588
LeftHandThumb1 -26.253704 0.000000 33.147579
Head -4.161335 5.368219 -1.138565
8
root -2.624872 33.075049 -0.265388 8.776713 -4.389098 2.125323
RightUpLeg -2.647307 -5.633626 -2.296504
RightLeg -0.199122 -0.000000 0.000000
RightFoot -11.555656 -0.828439 4.714142
RightToeBase 5.028749 -0.000000 -0.000000
LeftUpLeg -1.579295 6.562052 2.253724
LeftLeg 1.128141 -0.000000 -0.000000
LeftFoot -11.289339 1.420976 -11.320468
LeftToeBase 6.900135 -0.000000 -0.000000
Spine -9.057313 -2.167617 -1.023452
RightShoulder -20.314197 -16.902877 -26.775372
RightArm 18.838131 31.354062 38.263716
RightForeArm -10.122908 -0.000000 9.141669
RightHand 9.834671 0.000000 12.607673
RightHandThumb1 -24.326973 -0.000000 -32.862282
LeftShoulder -25.063171 9.084122 30.326013
LeftArm 13.932541 -28.091001 -31.834802
LeftForeArm 24.318736 0.000000 -0.469438
LeftHand -2.780500 -0.000000 -10.900453
LeftHandThumb1 -26.253704 0.000000 33.147579
Head -4.200079 5.351645 -1.102532
9
root -2.628237 33.074595 -0.261570 8.789778 -4.371940 2.119144
RightUpLeg -2.641890 -5.639607 -2.285948
RightLeg -0.216683 -0.000000 0.000000
RightFoot -11.556917 -0.824699 4.716671
RightToeBase 5.096548 -0.000000 -0.000000
LeftUpLeg -1.589737 6.537648 2.268469
LeftLeg 1.134955 -0.000000 -0.000000
LeftFoot -11.302112 1.420953 -11.338070
LeftToeBase 6.868242 -0.000000 -0.000000
Spine -9.065805 -2.185175 -1.022178
RightShoulder -20.320899 -16.931027 -26.746862
RightArm 18.843461 31.351357 38.263709
RightForeArm -10.090051 0.000000 9.156424
RightHand 9.882678 -0.000000 12.591639
RightHandThumb1 -24.326973 -0.000000 -32.862282
LeftShoulder -25.051834 9.051987 30.359460
LeftArm 13.895621 -28.064433 -31.791648
LeftForeArm 24.351274 -0.000000 -0.443631
LeftHand -2.752938 -0.000000 -10.882170
LeftHandThumb1 -26.253704 0.000000 33.147579
Head -4.218482 5.346825 -1.101982
10
root -2.629258 33.074221 -0.257853 8.797104 -4.354508 2.115152
RightUpLeg -2.635715 -5.635963 -2.281357
RightLeg -0.224153 -0.000000 0.000000
RightFoot -11.555219 -0.837173 4.724628
RightToeBase 5.084950 -0.000000 -0.000000
LeftUpLeg -1.591453 6.519572 2.275331
LeftLeg 1.131515 -0.000000 -0.000000
LeftFoot -11.302311 1.414668 -11.360059
LeftToeBase 6.880744 -0.000000 -0.000000
Spine -9.063418 -2.190696 -1.020126
RightShoulder -20.333417 -16.930859 -26.742080
RightArm 18.820965 31.315757 38.256267
RightForeArm -10.061608 -0.000000 9.180797
RightHand 9.835705 -0.000000 12.591334
RightHandThumb1 -24.326973 -0.000000 -32.862282
LeftShoulder -25.044054 9.063360 30.367860
LeftArm 13.904891 -28.073198 -31.770521
LeftForeArm 24.345604 0.000000 -0.418219
LeftHand -2.740240 -0.000000 -10.874481
LeftHandThumb1 -26.253704 0.000000 33.147579
Head -4.256636 5.339270 -1.096052
